{
	"patcher" : 	{
		"fileversion" : 1,
		"appversion" : 		{
			"major" : 9,
			"minor" : 0,
			"revision" : 0,
			"architecture" : "x64",
			"modernui" : 1
		}
,
		"classnamespace" : "box",
		"rect" : [ 34.0, 77.0, 1852.0, 921.0 ],
		"gridsize" : [ 15.0, 15.0 ],
		"style" : "default",
		"boxes" : [ 			{
				"box" : 				{
					"id" : "obj-8",
					"maxclass" : "newobj",
					"numinlets" : 2,
					"numoutlets" : 1,
					"outlettype" : [ "bang" ],
					"patching_rect" : [ 249.5, 104.0, 63.0, 22.0 ],
					"text" : "metro 150"
				}

			}
, 			{
				"box" : 				{
					"id" : "obj-170",
					"maxclass" : "number",
					"numinlets" : 1,
					"numoutlets" : 2,
					"outlettype" : [ "", "bang" ],
					"parameter_enable" : 0,
					"patching_rect" : [ 300.0, 45.78313422203064, 50.0, 22.0 ]
				}

			}
, 			{
				"box" : 				{
					"id" : "obj-142",
					"linecount" : 4,
					"maxclass" : "comment",
					"numinlets" : 1,
					"numoutlets" : 0,
					"patching_rect" : [ 492.771102547645569, 620.481950640678406, 153.0, 62.0 ],
					"presentation" : 1,
					"presentation_linecount" : 4,
					"presentation_rect" : [ 252.662662267684937, 544.578333377838135, 153.0, 62.0 ],
					"text" : "SWITCH pentru a putea comuta intre generarea de note aleatoare sau intr-o anumita gama muzicala"
				}

			}
, 			{
				"box" : 				{
					"id" : "obj-140",
					"maxclass" : "button",
					"numinlets" : 1,
					"numoutlets" : 1,
					"outlettype" : [ "bang" ],
					"parameter_enable" : 0,
					"patching_rect" : [ 2132.530199289321899, 201.0, 24.0, 24.0 ],
					"presentation" : 1,
					"presentation_rect" : [ 740.963882803916931, 609.638576745986938, 24.0, 24.0 ]
				}

			}
, 			{
				"box" : 				{
					"id" : "obj-138",
					"maxclass" : "button",
					"numinlets" : 1,
					"numoutlets" : 1,
					"outlettype" : [ "bang" ],
					"parameter_enable" : 0,
					"patching_rect" : [ 2075.903691172599792, 201.0, 24.0, 24.0 ],
					"presentation" : 1,
					"presentation_rect" : [ 740.963882803916931, 540.963875412940979, 24.0, 24.0 ]
				}

			}
, 			{
				"box" : 				{
					"id" : "obj-136",
					"maxclass" : "button",
					"numinlets" : 1,
					"numoutlets" : 1,
					"outlettype" : [ "bang" ],
					"parameter_enable" : 0,
					"patching_rect" : [ 2016.867544412612915, 201.0, 24.0, 24.0 ],
					"presentation" : 1,
					"presentation_rect" : [ 740.963882803916931, 475.108451366424561, 24.0, 24.0 ]
				}

			}
, 			{
				"box" : 				{
					"id" : "obj-134",
					"maxclass" : "button",
					"numinlets" : 1,
					"numoutlets" : 1,
					"outlettype" : [ "bang" ],
					"parameter_enable" : 0,
					"patching_rect" : [ 1957.831397652626038, 201.0, 24.0, 24.0 ],
					"presentation" : 1,
					"presentation_rect" : [ 740.963882803916931, 398.975918173789978, 24.0, 24.0 ]
				}

			}
, 			{
				"box" : 				{
					"id" : "obj-132",
					"maxclass" : "button",
					"numinlets" : 1,
					"numoutlets" : 1,
					"outlettype" : [ "bang" ],
					"parameter_enable" : 0,
					"patching_rect" : [ 1892.771154284477234, 197.385542035102844, 24.0, 24.0 ],
					"presentation" : 1,
					"presentation_rect" : [ 740.963882803916931, 336.710855484008789, 24.0, 24.0 ]
				}

			}
, 			{
				"box" : 				{
					"id" : "obj-130",
					"maxclass" : "button",
					"numinlets" : 1,
					"numoutlets" : 1,
					"outlettype" : [ "bang" ],
					"parameter_enable" : 0,
					"patching_rect" : [ 1831.325368881225586, 197.385542035102844, 24.0, 24.0 ],
					"presentation" : 1,
					"presentation_rect" : [ 740.963882803916931, 277.108443975448608, 24.0, 24.0 ]
				}

			}
, 			{
				"box" : 				{
					"id" : "obj-128",
					"maxclass" : "button",
					"numinlets" : 1,
					"numoutlets" : 1,
					"outlettype" : [ "bang" ],
					"parameter_enable" : 0,
					"patching_rect" : [ 1766.265125513076782, 197.385542035102844, 24.0, 24.0 ],
					"presentation" : 1,
					"presentation_rect" : [ 740.963882803916931, 216.867477893829346, 24.0, 24.0 ]
				}

			}
, 			{
				"box" : 				{
					"id" : "obj-126",
					"maxclass" : "button",
					"numinlets" : 1,
					"numoutlets" : 1,
					"outlettype" : [ "bang" ],
					"parameter_enable" : 0,
					"patching_rect" : [ 1703.614520788192749, 197.385542035102844, 24.0, 24.0 ],
					"presentation" : 1,
					"presentation_rect" : [ 575.903635740280151, 615.662673354148865, 24.0, 24.0 ]
				}

			}
, 			{
				"box" : 				{
					"id" : "obj-124",
					"maxclass" : "button",
					"numinlets" : 1,
					"numoutlets" : 1,
					"outlettype" : [ "bang" ],
					"parameter_enable" : 0,
					"patching_rect" : [ 1631.325361490249634, 197.385542035102844, 24.0, 24.0 ],
					"presentation" : 1,
					"presentation_rect" : [ 575.903635740280151, 544.578333377838135, 24.0, 24.0 ]
				}

			}
, 			{
				"box" : 				{
					"id" : "obj-122",
					"maxclass" : "button",
					"numinlets" : 1,
					"numoutlets" : 1,
					"outlettype" : [ "bang" ],
					"parameter_enable" : 0,
					"patching_rect" : [ 1563.85547947883606, 197.385542035102844, 24.0, 24.0 ],
					"presentation" : 1,
					"presentation_rect" : [ 575.903635740280151, 477.108451366424561, 24.0, 24.0 ]
				}

			}
, 			{
				"box" : 				{
					"id" : "obj-118",
					"maxclass" : "button",
					"numinlets" : 1,
					"numoutlets" : 1,
					"outlettype" : [ "bang" ],
					"parameter_enable" : 0,
					"patching_rect" : [ 1501.204874753952026, 197.385542035102844, 24.0, 24.0 ],
					"presentation" : 1,
					"presentation_rect" : [ 575.903635740280151, 403.975918173789978, 24.0, 24.0 ]
				}

			}
, 			{
				"box" : 				{
					"id" : "obj-106",
					"maxclass" : "button",
					"numinlets" : 1,
					"numoutlets" : 1,
					"outlettype" : [ "bang" ],
					"parameter_enable" : 0,
					"patching_rect" : [ 1438.554270029067993, 197.385542035102844, 24.0, 24.0 ],
					"presentation" : 1,
					"presentation_rect" : [ 575.903635740280151, 344.578325986862183, 24.0, 24.0 ]
				}

			}
, 			{
				"box" : 				{
					"id" : "obj-103",
					"maxclass" : "button",
					"numinlets" : 1,
					"numoutlets" : 1,
					"outlettype" : [ "bang" ],
					"parameter_enable" : 0,
					"patching_rect" : [ 1375.90366530418396, 197.385542035102844, 24.0, 24.0 ],
					"presentation" : 1,
					"presentation_rect" : [ 575.903635740280151, 281.927721261978149, 24.0, 24.0 ]
				}

			}
, 			{
				"box" : 				{
					"id" : "obj-100",
					"maxclass" : "button",
					"numinlets" : 1,
					"numoutlets" : 1,
					"outlettype" : [ "bang" ],
					"parameter_enable" : 0,
					"patching_rect" : [ 1318.072337865829468, 197.385542035102844, 24.0, 24.0 ],
					"presentation" : 1,
					"presentation_rect" : [ 575.903635740280151, 222.891574501991272, 24.0, 24.0 ]
				}

			}
, 			{
				"box" : 				{
					"id" : "obj-98",
					"linecount" : 2,
					"maxclass" : "comment",
					"numinlets" : 1,
					"numoutlets" : 0,
					"patching_rect" : [ 1043.37353253364563, 1009.457868814468384, 150.0, 34.0 ],
					"presentation" : 1,
					"presentation_linecount" : 2,
					"presentation_rect" : [ 260.240973472595215, 393.975918173789978, 150.0, 34.0 ],
					"text" : "Reseteaza gama dupa ichiderea patch-ului"
				}

			}
, 			{
				"box" : 				{
					"id" : "obj-96",
					"maxclass" : "comment",
					"numinlets" : 1,
					"numoutlets" : 0,
					"patching_rect" : [ 1560.241021513938904, 737.349424839019775, 150.0, 20.0 ]
				}

			}
, 			{
				"box" : 				{
					"id" : "obj-92",
					"maxclass" : "comment",
					"numinlets" : 1,
					"numoutlets" : 0,
					"patching_rect" : [ 368.16264933347702, 46.78313422203064, 68.674701333045959, 20.0 ],
					"presentation" : 1,
					"presentation_rect" : [ 294.530130922794342, 477.108451366424561, 66.265062689781189, 20.0 ],
					"text" : "Metronom"
				}

			}
, 			{
				"box" : 				{
					"id" : "obj-88",
					"linecount" : 2,
					"maxclass" : "comment",
					"numinlets" : 1,
					"numoutlets" : 0,
					"patching_rect" : [ 1043.37353253364563, 952.831360697746277, 150.0, 34.0 ],
					"presentation" : 1,
					"presentation_linecount" : 2,
					"presentation_rect" : [ 266.265070080757141, 322.891578197479248, 150.0, 34.0 ],
					"text" : "Salveaza gama muzicala in patch"
				}

			}
, 			{
				"box" : 				{
					"id" : "obj-86",
					"maxclass" : "comment",
					"numinlets" : 1,
					"numoutlets" : 0,
					"patching_rect" : [ 1046.987990498542786, 903.61449122428894, 50.602411508560181, 20.0 ],
					"presentation" : 1,
					"presentation_rect" : [ 306.578324139118195, 204.819284677505493, 43.0, 20.0 ],
					"text" : "OPEN"
				}

			}
, 			{
				"box" : 				{
					"id" : "obj-84",
					"maxclass" : "comment",
					"numinlets" : 1,
					"numoutlets" : 0,
					"patching_rect" : [ 902.409671902656555, 830.915693283081055, 53.012050151824951, 20.0 ],
					"presentation" : 1,
					"presentation_rect" : [ 306.578324139118195, 266.265070080757141, 50.602411508560181, 20.0 ],
					"text" : "CLEAR"
				}

			}
, 			{
				"box" : 				{
					"id" : "obj-71",
					"maxclass" : "button",
					"numinlets" : 1,
					"numoutlets" : 1,
					"outlettype" : [ "bang" ],
					"parameter_enable" : 0,
					"patching_rect" : [ 1009.638591527938843, 1014.457868814468384, 24.0, 24.0 ],
					"presentation" : 1,
					"presentation_rect" : [ 315.662662267684937, 440.963871717453003, 24.0, 24.0 ]
				}

			}
, 			{
				"box" : 				{
					"id" : "obj-65",
					"maxclass" : "message",
					"numinlets" : 2,
					"numoutlets" : 1,
					"outlettype" : [ "" ],
					"patching_rect" : [ 873.17075252532959, 991.566301703453064, 55.0, 22.0 ],
					"text" : "embed 0"
				}

			}
, 			{
				"box" : 				{
					"id" : "obj-50",
					"maxclass" : "button",
					"numinlets" : 1,
					"numoutlets" : 1,
					"outlettype" : [ "bang" ],
					"parameter_enable" : 0,
					"patching_rect" : [ 1009.638591527938843, 957.831360697746277, 24.0, 24.0 ],
					"presentation" : 1,
					"presentation_rect" : [ 316.493986934423447, 363.855435132980347, 22.33735066652298, 22.33735066652298 ]
				}

			}
, 			{
				"box" : 				{
					"id" : "obj-27",
					"maxclass" : "button",
					"numinlets" : 1,
					"numoutlets" : 1,
					"outlettype" : [ "bang" ],
					"parameter_enable" : 0,
					"patching_rect" : [ 1009.638591527938843, 903.61449122428894, 24.0, 24.0 ],
					"presentation" : 1,
					"presentation_rect" : [ 315.662662267684937, 231.325309753417969, 24.0, 24.0 ]
				}

			}
, 			{
				"box" : 				{
					"id" : "obj-15",
					"maxclass" : "button",
					"numinlets" : 1,
					"numoutlets" : 1,
					"outlettype" : [ "bang" ],
					"parameter_enable" : 0,
					"patching_rect" : [ 873.17075252532959, 828.915693283081055, 24.0, 24.0 ],
					"presentation" : 1,
					"presentation_rect" : [ 315.662662267684937, 295.180733799934387, 24.0, 24.0 ]
				}

			}
, 			{
				"box" : 				{
					"id" : "obj-81",
					"maxclass" : "comment",
					"numinlets" : 1,
					"numoutlets" : 0,
					"patching_rect" : [ 1767.469944834709167, 843.373525142669678, 150.0, 22.0 ],
					"presentation" : 1,
					"presentation_rect" : [ 723.445809423923492, 583.132551670074463, 62.650604724884033, 22.0 ],
					"text" : "B♭ minor"
				}

			}
, 			{
				"box" : 				{
					"id" : "obj-79",
					"maxclass" : "message",
					"numinlets" : 2,
					"numoutlets" : 1,
					"outlettype" : [ "" ],
					"patching_rect" : [ 1009.638591527938843, 843.373525142669678, 744.0, 22.0 ],
					"text" : "insert 1 58, 2 60, 3 61, 4 63, 5 65, 6 66, 7 68, 8 70, 9 72, 10 73, 11 75, 12 77, 13 78, 14 80, 15 82, 16 84, 17 85, 18 87, 19 89, 20 90, 21 92"
				}

			}
, 			{
				"box" : 				{
					"id" : "obj-78",
					"maxclass" : "comment",
					"numinlets" : 1,
					"numoutlets" : 0,
					"patching_rect" : [ 1767.469944834709167, 809.638584136962891, 150.0, 20.0 ],
					"presentation" : 1,
					"presentation_rect" : [ 725.855448067188263, 514.457850337028503, 57.831327438354492, 20.0 ],
					"text" : "F minor"
				}

			}
, 			{
				"box" : 				{
					"id" : "obj-76",
					"maxclass" : "message",
					"numinlets" : 2,
					"numoutlets" : 1,
					"outlettype" : [ "" ],
					"patching_rect" : [ 1009.638591527938843, 808.433764815330505, 744.0, 22.0 ],
					"text" : "insert 1 53, 2 55, 3 56, 4 58, 5 60, 6 61, 7 63, 8 65, 9 67, 10 68, 11 70, 12 72, 13 73, 14 75, 15 77, 16 79, 17 80, 18 82, 19 84, 20 85, 21 87"
				}

			}
, 			{
				"box" : 				{
					"id" : "obj-75",
					"maxclass" : "comment",
					"numinlets" : 1,
					"numoutlets" : 0,
					"patching_rect" : [ 1767.469944834709167, 772.289185166358948, 150.0, 20.0 ],
					"presentation" : 1,
					"presentation_rect" : [ 724.650628745555878, 442.963871717453003, 56.626508116722107, 20.0 ],
					"text" : "E minor"
				}

			}
, 			{
				"box" : 				{
					"id" : "obj-73",
					"maxclass" : "message",
					"numinlets" : 2,
					"numoutlets" : 1,
					"outlettype" : [ "" ],
					"patching_rect" : [ 1009.638591527938843, 769.879546523094177, 744.0, 22.0 ],
					"text" : "insert 1 52, 2 54, 3 55, 4 57, 5 59, 6 60, 7 62, 8 64, 9 66, 10 67, 11 69, 12 71, 13 72, 14 74, 15 76, 16 78, 17 79, 18 81, 19 83, 20 84, 21 86"
				}

			}
, 			{
				"box" : 				{
					"id" : "obj-72",
					"maxclass" : "comment",
					"numinlets" : 1,
					"numoutlets" : 0,
					"patching_rect" : [ 1767.469944834709167, 731.325328230857849, 150.0, 20.0 ],
					"presentation" : 1,
					"presentation_rect" : [ 726.457857728004456, 373.493989706039429, 56.626508116722107, 20.0 ],
					"text" : "A minor"
				}

			}
, 			{
				"box" : 				{
					"id" : "obj-70",
					"maxclass" : "message",
					"numinlets" : 2,
					"numoutlets" : 1,
					"outlettype" : [ "" ],
					"patching_rect" : [ 1009.638591527938843, 730.120508909225464, 744.0, 22.0 ],
					"text" : "insert 1 57, 2 59, 3 60, 4 62, 5 64, 6 65, 7 67, 8 69, 9 71, 10 72, 11 74, 12 76, 13 77, 14 79, 15 81, 16 83, 17 84, 18 86, 19 88, 20 89, 21 91"
				}

			}
, 			{
				"box" : 				{
					"id" : "obj-69",
					"maxclass" : "comment",
					"numinlets" : 1,
					"numoutlets" : 0,
					"patching_rect" : [ 1767.469944834709167, 691.566290616989136, 150.0, 20.0 ],
					"presentation" : 1,
					"presentation_rect" : [ 725.25303840637207, 313.253023624420166, 55.421688795089722, 20.0 ],
					"text" : "D minor"
				}

			}
, 			{
				"box" : 				{
					"id" : "obj-67",
					"maxclass" : "message",
					"numinlets" : 2,
					"numoutlets" : 1,
					"outlettype" : [ "" ],
					"patching_rect" : [ 1009.638591527938843, 691.566290616989136, 744.0, 22.0 ],
					"text" : "insert 1 50, 2 52, 3 53, 4 55, 5 57, 6 58, 7 60, 8 62, 9 64, 10 65, 11 67, 12 69, 13 70, 14 72, 15 74, 16 76, 17 77, 18 79, 19 81, 20 82, 21 84"
				}

			}
, 			{
				"box" : 				{
					"id" : "obj-66",
					"maxclass" : "comment",
					"numinlets" : 1,
					"numoutlets" : 0,
					"patching_rect" : [ 1767.469944834709167, 649.397614359855652, 150.0, 20.0 ],
					"presentation" : 1,
					"presentation_rect" : [ 726.457857728004456, 250.602418899536133, 53.012050151824951, 20.0 ],
					"text" : "G minor"
				}

			}
, 			{
				"box" : 				{
					"id" : "obj-64",
					"maxclass" : "message",
					"numinlets" : 2,
					"numoutlets" : 1,
					"outlettype" : [ "" ],
					"patching_rect" : [ 1009.638591527938843, 648.192795038223267, 744.0, 22.0 ],
					"text" : "insert 1 55, 2 57, 3 58, 4 60, 5 62, 6 63, 7 65, 8 67, 9 69, 10 70, 11 72, 12 74, 13 75, 14 77, 15 79, 16 81, 17 82, 18 84, 19 86, 20 87, 21 89"
				}

			}
, 			{
				"box" : 				{
					"id" : "obj-63",
					"maxclass" : "message",
					"numinlets" : 2,
					"numoutlets" : 1,
					"outlettype" : [ "" ],
					"patching_rect" : [ 1009.638591527938843, 607.228938102722168, 744.0, 22.0 ],
					"text" : "insert 1 48, 2 50, 3 51, 4 53, 5 55, 6 56, 7 58, 8 60, 9 62, 10 63, 11 65, 12 67, 13 68, 14 70, 15 72, 16 74, 17 75, 18 77, 19 79, 20 80, 21 82"
				}

			}
, 			{
				"box" : 				{
					"id" : "obj-62",
					"maxclass" : "comment",
					"numinlets" : 1,
					"numoutlets" : 0,
					"patching_rect" : [ 1767.469944834709167, 608.433757424354553, 150.0, 20.0 ],
					"presentation" : 1,
					"presentation_rect" : [ 725.25303840637207, 194.867477893829346, 55.421688795089722, 20.0 ],
					"text" : "C minor"
				}

			}
, 			{
				"box" : 				{
					"id" : "obj-59",
					"maxclass" : "comment",
					"numinlets" : 1,
					"numoutlets" : 0,
					"patching_rect" : [ 1767.469944834709167, 565.060261845588684, 150.0, 22.0 ],
					"presentation" : 1,
					"presentation_rect" : [ 557.78315269947052, 583.132551670074463, 60.240966081619263, 22.0 ],
					"text" : "B♭ major"
				}

			}
, 			{
				"box" : 				{
					"id" : "obj-56",
					"maxclass" : "message",
					"numinlets" : 2,
					"numoutlets" : 1,
					"outlettype" : [ "" ],
					"patching_rect" : [ 1009.638591527938843, 565.060261845588684, 744.0, 22.0 ],
					"text" : "insert 1 58, 2 60, 3 62, 4 63, 5 65, 6 67, 7 69, 8 70, 9 72, 10 74, 11 75, 12 77, 13 79, 14 81, 15 82, 16 84, 17 86, 18 87, 19 89, 20 91, 21 93"
				}

			}
, 			{
				"box" : 				{
					"id" : "obj-55",
					"maxclass" : "comment",
					"numinlets" : 1,
					"numoutlets" : 0,
					"patching_rect" : [ 1767.469944834709167, 524.096404910087585, 150.0, 20.0 ],
					"presentation" : 1,
					"presentation_rect" : [ 560.795201003551483, 514.457850337028503, 54.216869473457336, 20.0 ],
					"text" : "F major"
				}

			}
, 			{
				"box" : 				{
					"id" : "obj-53",
					"maxclass" : "message",
					"numinlets" : 2,
					"numoutlets" : 1,
					"outlettype" : [ "" ],
					"patching_rect" : [ 1009.638591527938843, 521.686766266822815, 744.0, 22.0 ],
					"text" : "insert 1 53, 2 55, 3 57, 4 58, 5 60, 6 62, 7 64, 8 65, 9 67, 10 69, 11 70, 12 72, 13 74, 14 76, 15 77, 16 79, 17 81, 18 82, 19 84, 20 86, 21 88"
				}

			}
, 			{
				"box" : 				{
					"id" : "obj-51",
					"maxclass" : "comment",
					"numinlets" : 1,
					"numoutlets" : 0,
					"patching_rect" : [ 1767.469944834709167, 477.108451366424561, 150.0, 20.0 ],
					"presentation" : 1,
					"presentation_rect" : [ 560.192791342735291, 442.963871717453003, 55.421688795089722, 20.0 ],
					"text" : "E major"
				}

			}
, 			{
				"box" : 				{
					"id" : "obj-40",
					"maxclass" : "message",
					"numinlets" : 2,
					"numoutlets" : 1,
					"outlettype" : [ "" ],
					"patching_rect" : [ 1009.638591527938843, 475.903632044792175, 744.0, 22.0 ],
					"text" : "insert 1 52, 2 54, 3 56, 4 57, 5 59, 6 61, 7 63, 8 64, 9 66, 10 68, 11 69, 12 71, 13 73, 14 75, 15 76, 16 78, 17 80, 18 81, 19 83, 20 85, 21 87"
				}

			}
, 			{
				"box" : 				{
					"id" : "obj-39",
					"maxclass" : "comment",
					"numinlets" : 1,
					"numoutlets" : 0,
					"patching_rect" : [ 1767.469944834709167, 424.096401214599609, 150.0, 20.0 ],
					"presentation" : 1,
					"presentation_rect" : [ 562.048213541507721, 376.975918173789978, 51.710844397544861, 20.0 ],
					"text" : "A major"
				}

			}
, 			{
				"box" : 				{
					"id" : "obj-32",
					"maxclass" : "message",
					"numinlets" : 2,
					"numoutlets" : 1,
					"outlettype" : [ "" ],
					"patching_rect" : [ 1009.638591527938843, 422.891581892967224, 744.0, 22.0 ],
					"text" : "insert 1 57, 2 59, 3 61, 4 62, 5 64, 6 66, 7 68, 8 69, 9 71, 10 73, 11 74, 12 76, 13 78, 14 80, 15 81, 16 83, 17 85, 18 86, 19 88, 20 90, 21 92"
				}

			}
, 			{
				"box" : 				{
					"id" : "obj-30",
					"maxclass" : "comment",
					"numinlets" : 1,
					"numoutlets" : 0,
					"patching_rect" : [ 1767.469944834709167, 371.084351062774658, 150.0, 20.0 ],
					"presentation" : 1,
					"presentation_rect" : [ 559.590381681919098, 316.867481589317322, 56.626508116722107, 20.0 ],
					"text" : "D major "
				}

			}
, 			{
				"box" : 				{
					"id" : "obj-26",
					"maxclass" : "message",
					"numinlets" : 2,
					"numoutlets" : 1,
					"outlettype" : [ "" ],
					"patching_rect" : [ 1009.638591527938843, 369.879531741142273, 744.0, 22.0 ],
					"text" : "insert 1 50, 2 52, 3 54, 4 55, 5 57, 6 59, 7 61, 8 62, 9 64, 10 66, 11 67, 12 69, 13 71, 14 73, 15 74, 16 76, 17 78, 18 79, 19 81, 20 83, 21 85"
				}

			}
, 			{
				"box" : 				{
					"id" : "obj-25",
					"maxclass" : "comment",
					"numinlets" : 1,
					"numoutlets" : 0,
					"patching_rect" : [ 1767.469944834709167, 315.662662267684937, 150.0, 20.0 ],
					"presentation" : 1,
					"presentation_rect" : [ 556.626526594161987, 255.421696186065674, 59.036146759986877, 20.0 ],
					"text" : "G major"
				}

			}
, 			{
				"box" : 				{
					"id" : "obj-16",
					"maxclass" : "message",
					"numinlets" : 2,
					"numoutlets" : 1,
					"outlettype" : [ "" ],
					"patching_rect" : [ 1009.638591527938843, 314.457842946052551, 744.0, 22.0 ],
					"text" : "insert 1 55, 2 57, 3 59, 4 60, 5 62, 6 64, 7 66, 8 67, 9 69, 10 71, 11 72, 12 74, 13 76, 14 78, 15 79, 16 81, 17 83, 18 84, 19 86, 20 88, 21 90"
				}

			}
, 			{
				"box" : 				{
					"id" : "obj-4",
					"maxclass" : "newobj",
					"numinlets" : 2,
					"numoutlets" : 1,
					"outlettype" : [ "int" ],
					"patching_rect" : [ 699.433735251426697, 513.253031015396118, 36.0, 22.0 ],
					"text" : "% 21"
				}

			}
, 			{
				"box" : 				{
					"id" : "obj-188",
					"linecount" : 2,
					"maxclass" : "comment",
					"numinlets" : 1,
					"numoutlets" : 0,
					"patching_rect" : [ 849.0, 162.650608420372009, 434.14635181427002, 34.0 ],
					"presentation" : 1,
					"presentation_linecount" : 2,
					"presentation_rect" : [ 813.253042101860046, 295.180733799934387, 434.14635181427002, 34.0 ],
					"text" : "Se va putea alege gama in care sa fie generate notele sau se vor lasa toate notele generate de algoritm"
				}

			}
, 			{
				"box" : 				{
					"id" : "obj-158",
					"maxclass" : "comment",
					"numinlets" : 1,
					"numoutlets" : 0,
					"patching_rect" : [ 1866.666595458984375, 1356.249948263168335, 207.317078113555908, 20.0 ],
					"text" : "Gama Mixolidiană – C Mixolydian"
				}

			}
, 			{
				"box" : 				{
					"id" : "obj-156",
					"maxclass" : "message",
					"numinlets" : 2,
					"numoutlets" : 1,
					"outlettype" : [ "" ],
					"patching_rect" : [ 1572.916606664657593, 1356.249948263168335, 275.0, 22.0 ],
					"text" : "insert 0 60, 1 62, 2 64, 3 65, 4 67, 5 69, 6 70, 7 72"
				}

			}
, 			{
				"box" : 				{
					"id" : "obj-153",
					"maxclass" : "comment",
					"numinlets" : 1,
					"numoutlets" : 0,
					"patching_rect" : [ 1866.666595458984375, 1312.499949932098389, 150.0, 20.0 ],
					"text" : "Gama Doriană – C Dorian"
				}

			}
, 			{
				"box" : 				{
					"id" : "obj-151",
					"maxclass" : "message",
					"numinlets" : 2,
					"numoutlets" : 1,
					"outlettype" : [ "" ],
					"patching_rect" : [ 1572.916606664657593, 1312.499949932098389, 275.0, 22.0 ],
					"text" : "insert 0 60, 1 62, 2 63, 3 65, 4 67, 5 69, 6 70, 7 72"
				}

			}
, 			{
				"box" : 				{
					"id" : "obj-150",
					"maxclass" : "comment",
					"numinlets" : 1,
					"numoutlets" : 0,
					"patching_rect" : [ 1866.666595458984375, 1270.833284854888916, 186.585370302200317, 20.0 ],
					"text" : "Gama Lidiană – C Lydian (cu #4)"
				}

			}
, 			{
				"box" : 				{
					"id" : "obj-146",
					"maxclass" : "message",
					"numinlets" : 2,
					"numoutlets" : 1,
					"outlettype" : [ "" ],
					"patching_rect" : [ 1572.916606664657593, 1268.749951601028442, 275.0, 22.0 ],
					"text" : "insert 0 60, 1 62, 2 64, 3 66, 4 67, 5 69, 6 71, 7 72"
				}

			}
, 			{
				"box" : 				{
					"id" : "obj-117",
					"int" : 1,
					"maxclass" : "gswitch",
					"numinlets" : 3,
					"numoutlets" : 1,
					"outlettype" : [ "" ],
					"parameter_enable" : 0,
					"patching_rect" : [ 648.831323742866516, 627.710866570472717, 41.0, 32.0 ],
					"presentation" : 1,
					"presentation_rect" : [ 307.162662267684937, 625.301227927207947, 41.0, 32.0 ]
				}

			}
, 			{
				"box" : 				{
					"id" : "obj-14",
					"maxclass" : "message",
					"numinlets" : 2,
					"numoutlets" : 1,
					"outlettype" : [ "" ],
					"patching_rect" : [ 873.17075252532959, 875.609776973724365, 35.0, 22.0 ],
					"text" : "clear"
				}

			}
, 			{
				"box" : 				{
					"id" : "obj-121",
					"maxclass" : "comment",
					"numinlets" : 1,
					"numoutlets" : 0,
					"patching_rect" : [ 1767.469944834709167, 255.421696186065674, 150.0, 20.0 ],
					"presentation" : 1,
					"presentation_rect" : [ 560.240984559059143, 198.481935858726501, 55.421688795089722, 20.0 ],
					"text" : "C major"
				}

			}
, 			{
				"box" : 				{
					"id" : "obj-119",
					"maxclass" : "message",
					"numinlets" : 2,
					"numoutlets" : 1,
					"outlettype" : [ "" ],
					"patching_rect" : [ 1009.638591527938843, 255.421696186065674, 744.0, 22.0 ],
					"text" : "insert 1 48, 2 50, 3 52, 4 53, 5 55, 6 57, 7 59, 8 60, 9 62, 10 64, 11 65, 12 67, 13 69, 14 71, 15 72, 16 74, 17 76, 18 77, 19 79, 20 81, 21 83"
				}

			}
, 			{
				"box" : 				{
					"id" : "obj-116",
					"maxclass" : "comment",
					"numinlets" : 1,
					"numoutlets" : 0,
					"patching_rect" : [ 1862.499928951263428, 1227.08328652381897, 297.0, 20.0 ],
					"text" : "Gama Pentatonică Majoră – C Pentatonic Major"
				}

			}
, 			{
				"box" : 				{
					"id" : "obj-115",
					"maxclass" : "message",
					"numinlets" : 2,
					"numoutlets" : 1,
					"outlettype" : [ "" ],
					"patching_rect" : [ 1574.999939918518066, 1227.08328652381897, 215.0, 22.0 ],
					"text" : "insert 0 60, 1 62, 2 64, 3 67, 4 69, 5 72"
				}

			}
, 			{
				"box" : 				{
					"id" : "obj-114",
					"maxclass" : "comment",
					"numinlets" : 1,
					"numoutlets" : 0,
					"patching_rect" : [ 1862.499928951263428, 1185.416621446609497, 319.0, 20.0 ],
					"text" : "Gama Minoră Melodică Ascendentă – C Melodic Minor"
				}

			}
, 			{
				"box" : 				{
					"id" : "obj-112",
					"maxclass" : "comment",
					"numinlets" : 1,
					"numoutlets" : 0,
					"patching_rect" : [ 1862.499928951263428, 1139.583289861679077, 259.0, 20.0 ],
					"text" : "Gama Minoră Armonică – C Harmonic Minor"
				}

			}
, 			{
				"box" : 				{
					"id" : "obj-111",
					"maxclass" : "comment",
					"numinlets" : 1,
					"numoutlets" : 0,
					"patching_rect" : [ 1862.499928951263428, 1095.833291530609131, 242.0, 20.0 ],
					"text" : "Gama Minoră Naturală (Aeolian) – C Minor"
				}

			}
, 			{
				"box" : 				{
					"id" : "obj-110",
					"maxclass" : "comment",
					"numinlets" : 1,
					"numoutlets" : 0,
					"patching_rect" : [ 1862.499928951263428, 1049.999959945678711, 210.0, 20.0 ],
					"text" : "Gama Majoră (Ionian) – C Major"
				}

			}
, 			{
				"box" : 				{
					"id" : "obj-109",
					"maxclass" : "message",
					"numinlets" : 2,
					"numoutlets" : 1,
					"outlettype" : [ "" ],
					"patching_rect" : [ 1574.999939918518066, 1183.333288192749023, 275.0, 22.0 ],
					"text" : "insert 0 60, 1 62, 2 63, 3 65, 4 67, 5 69, 6 71, 7 72"
				}

			}
, 			{
				"box" : 				{
					"id" : "obj-108",
					"maxclass" : "message",
					"numinlets" : 2,
					"numoutlets" : 1,
					"outlettype" : [ "" ],
					"patching_rect" : [ 1574.999939918518066, 1139.583289861679077, 275.0, 22.0 ],
					"text" : "insert 0 60, 1 62, 2 63, 3 65, 4 67, 5 68, 6 71, 7 72"
				}

			}
, 			{
				"box" : 				{
					"id" : "obj-107",
					"maxclass" : "message",
					"numinlets" : 2,
					"numoutlets" : 1,
					"outlettype" : [ "" ],
					"patching_rect" : [ 1574.999939918518066, 1095.833291530609131, 275.0, 22.0 ],
					"text" : "insert 0 60, 1 62, 2 63, 3 65, 4 67, 5 68, 6 70, 7 72"
				}

			}
, 			{
				"box" : 				{
					"id" : "obj-105",
					"maxclass" : "message",
					"numinlets" : 2,
					"numoutlets" : 1,
					"outlettype" : [ "" ],
					"patching_rect" : [ 1574.999939918518066, 1049.999959945678711, 275.0, 22.0 ],
					"text" : "insert 0 60, 1 62, 2 64, 3 65, 4 67, 5 69, 6 71, 7 72"
				}

			}
, 			{
				"box" : 				{
					"id" : "obj-101",
					"maxclass" : "message",
					"numinlets" : 2,
					"numoutlets" : 1,
					"outlettype" : [ "" ],
					"patching_rect" : [ 873.17075252532959, 951.219534873962402, 55.0, 22.0 ],
					"text" : "embed 1"
				}

			}
, 			{
				"box" : 				{
					"id" : "obj-57",
					"maxclass" : "message",
					"numinlets" : 2,
					"numoutlets" : 1,
					"outlettype" : [ "" ],
					"patching_rect" : [ 873.17075252532959, 912.195143699645996, 35.0, 22.0 ],
					"text" : "open"
				}

			}
, 			{
				"box" : 				{
					"coll_data" : 					{
						"count" : 21,
						"data" : [ 							{
								"key" : 1,
								"value" : [ 58 ]
							}
, 							{
								"key" : 2,
								"value" : [ 60 ]
							}
, 							{
								"key" : 3,
								"value" : [ 61 ]
							}
, 							{
								"key" : 4,
								"value" : [ 63 ]
							}
, 							{
								"key" : 5,
								"value" : [ 65 ]
							}
, 							{
								"key" : 6,
								"value" : [ 66 ]
							}
, 							{
								"key" : 7,
								"value" : [ 68 ]
							}
, 							{
								"key" : 8,
								"value" : [ 70 ]
							}
, 							{
								"key" : 9,
								"value" : [ 72 ]
							}
, 							{
								"key" : 10,
								"value" : [ 73 ]
							}
, 							{
								"key" : 11,
								"value" : [ 75 ]
							}
, 							{
								"key" : 12,
								"value" : [ 77 ]
							}
, 							{
								"key" : 13,
								"value" : [ 78 ]
							}
, 							{
								"key" : 14,
								"value" : [ 80 ]
							}
, 							{
								"key" : 15,
								"value" : [ 82 ]
							}
, 							{
								"key" : 16,
								"value" : [ 84 ]
							}
, 							{
								"key" : 17,
								"value" : [ 85 ]
							}
, 							{
								"key" : 18,
								"value" : [ 87 ]
							}
, 							{
								"key" : 19,
								"value" : [ 89 ]
							}
, 							{
								"key" : 20,
								"value" : [ 90 ]
							}
, 							{
								"key" : 21,
								"value" : [ 92 ]
							}
 ]
					}
,
					"id" : "obj-1",
					"maxclass" : "newobj",
					"numinlets" : 1,
					"numoutlets" : 4,
					"outlettype" : [ "", "", "", "" ],
					"patching_rect" : [ 691.0, 587.951828956604004, 60.0, 22.0 ],
					"saved_object_attributes" : 					{
						"embed" : 1,
						"precision" : 6
					}
,
					"text" : "coll gama"
				}

			}
, 			{
				"box" : 				{
					"id" : "obj-11",
					"linecount" : 6,
					"maxclass" : "comment",
					"numinlets" : 1,
					"numoutlets" : 0,
					"patching_rect" : [ 849.0, 58.5, 509.0, 89.0 ],
					"presentation" : 1,
					"presentation_linecount" : 6,
					"presentation_rect" : [ 813.253042101860046, 190.36145281791687, 509.0, 89.0 ],
					"text" : "Algoritm:\n- Alegem un numar pozitiv (nota MIDI)\n- Verificam daca numarul este par sau impar\n- Daca este par, il impartim la 2\n- Daca este impar, il inmultim cu 3, adaugam 1 si il imartim la 2\n- Repetam acest algoritm pana cand ajungem la numarul 1 (ultima nota care se va auzi)"
				}

			}
, 			{
				"box" : 				{
					"id" : "obj-6",
					"maxclass" : "comment",
					"numinlets" : 1,
					"numoutlets" : 0,
					"patching_rect" : [ 162.0, 202.0, 56.0, 20.0 ],
					"text" : " Velocity"
				}

			}
, 			{
				"box" : 				{
					"id" : "obj-2",
					"maxclass" : "comment",
					"numinlets" : 1,
					"numoutlets" : 0,
					"patching_rect" : [ 4.0, 236.0, 44.0, 20.0 ],
					"text" : "Start"
				}

			}
, 			{
				"box" : 				{
					"id" : "obj-52",
					"maxclass" : "newobj",
					"numinlets" : 1,
					"numoutlets" : 3,
					"outlettype" : [ "int", "int", "int" ],
					"patching_rect" : [ 53.0, 235.0, 56.0, 22.0 ],
					"text" : "thispoly~"
				}

			}
, 			{
				"box" : 				{
					"id" : "obj-49",
					"maxclass" : "newobj",
					"numinlets" : 2,
					"numoutlets" : 1,
					"outlettype" : [ "float" ],
					"patching_rect" : [ 170.0, 305.0, 40.0, 22.0 ],
					"text" : "* 0.99"
				}

			}
, 			{
				"box" : 				{
					"id" : "obj-48",
					"maxclass" : "newobj",
					"numinlets" : 2,
					"numoutlets" : 1,
					"outlettype" : [ "int" ],
					"patching_rect" : [ 170.0, 235.0, 45.0, 22.0 ],
					"text" : "int 120"
				}

			}
, 			{
				"box" : 				{
					"id" : "obj-47",
					"maxclass" : "newobj",
					"numinlets" : 1,
					"numoutlets" : 2,
					"outlettype" : [ "int", "int" ],
					"patching_rect" : [ 705.0, 346.0, 59.0, 22.0 ],
					"text" : "trigger 1 i"
				}

			}
, 			{
				"box" : 				{
					"id" : "obj-46",
					"maxclass" : "newobj",
					"numinlets" : 1,
					"numoutlets" : 1,
					"outlettype" : [ "" ],
					"patching_rect" : [ 705.0, 276.0, 32.0, 22.0 ],
					"text" : "mtof"
				}

			}
, 			{
				"box" : 				{
					"id" : "obj-45",
					"maxclass" : "newobj",
					"numinlets" : 1,
					"numoutlets" : 2,
					"outlettype" : [ "int", "int" ],
					"patching_rect" : [ 705.0, 201.0, 67.0, 22.0 ],
					"text" : "unpack 0 0"
				}

			}
, 			{
				"box" : 				{
					"id" : "obj-44",
					"maxclass" : "newobj",
					"numinlets" : 1,
					"numoutlets" : 8,
					"outlettype" : [ "", "", "", "int", "int", "", "int", "" ],
					"patching_rect" : [ 705.0, 132.0, 92.5, 22.0 ],
					"text" : "midiparse"
				}

			}
, 			{
				"box" : 				{
					"id" : "obj-43",
					"maxclass" : "newobj",
					"numinlets" : 0,
					"numoutlets" : 1,
					"outlettype" : [ "int" ],
					"patching_rect" : [ 705.0, 68.0, 62.0, 22.0 ],
					"text" : "polymidiin"
				}

			}
, 			{
				"box" : 				{
					"id" : "obj-42",
					"maxclass" : "newobj",
					"numinlets" : 1,
					"numoutlets" : 0,
					"patching_rect" : [ 692.771109938621521, 942.168709516525269, 35.0, 22.0 ],
					"saved_object_attributes" : 					{
						"attr_comment" : ""
					}
,
					"text" : "out 2"
				}

			}
, 			{
				"box" : 				{
					"id" : "obj-41",
					"maxclass" : "newobj",
					"numinlets" : 1,
					"numoutlets" : 0,
					"patching_rect" : [ 603.614480137825012, 942.168709516525269, 35.0, 22.0 ],
					"saved_object_attributes" : 					{
						"attr_comment" : ""
					}
,
					"text" : "out 1"
				}

			}
, 			{
				"box" : 				{
					"id" : "obj-38",
					"maxclass" : "newobj",
					"numinlets" : 3,
					"numoutlets" : 2,
					"outlettype" : [ "float", "float" ],
					"patching_rect" : [ 603.614480137825012, 885.542201399803162, 108.0, 22.0 ],
					"text" : "makenote 120 500"
				}

			}
, 			{
				"box" : 				{
					"id" : "obj-37",
					"maxclass" : "number",
					"numinlets" : 1,
					"numoutlets" : 2,
					"outlettype" : [ "", "bang" ],
					"parameter_enable" : 0,
					"patching_rect" : [ 603.614480137825012, 849.397621750831604, 50.0, 22.0 ]
				}

			}
, 			{
				"box" : 				{
					"id" : "obj-35",
					"maxclass" : "newobj",
					"numinlets" : 3,
					"numoutlets" : 1,
					"outlettype" : [ "" ],
					"patching_rect" : [ 603.614480137825012, 810.843403458595276, 60.0, 22.0 ],
					"text" : "clip 0 127"
				}

			}
, 			{
				"box" : 				{
					"id" : "obj-34",
					"maxclass" : "newobj",
					"numinlets" : 1,
					"numoutlets" : 1,
					"outlettype" : [ "" ],
					"patching_rect" : [ 587.0, 459.0, 32.0, 22.0 ],
					"text" : "ftom"
				}

			}
, 			{
				"box" : 				{
					"id" : "obj-31",
					"maxclass" : "button",
					"numinlets" : 1,
					"numoutlets" : 1,
					"outlettype" : [ "bang" ],
					"parameter_enable" : 0,
					"patching_rect" : [ 310.0, 846.0, 24.0, 24.0 ]
				}

			}
, 			{
				"box" : 				{
					"id" : "obj-29",
					"maxclass" : "newobj",
					"numinlets" : 2,
					"numoutlets" : 2,
					"outlettype" : [ "bang", "" ],
					"patching_rect" : [ 310.0, 803.0, 34.0, 22.0 ],
					"text" : "sel 1"
				}

			}
, 			{
				"box" : 				{
					"id" : "obj-28",
					"maxclass" : "toggle",
					"numinlets" : 1,
					"numoutlets" : 1,
					"outlettype" : [ "int" ],
					"parameter_enable" : 0,
					"patching_rect" : [ 144.0, 132.0, 34.0, 34.0 ],
					"svg" : ""
				}

			}
, 			{
				"box" : 				{
					"id" : "obj-23",
					"maxclass" : "newobj",
					"numinlets" : 1,
					"numoutlets" : 2,
					"outlettype" : [ "int", "int" ],
					"patching_rect" : [ 375.0, 276.0, 55.0, 22.0 ],
					"text" : "trigger i i"
				}

			}
, 			{
				"box" : 				{
					"id" : "obj-22",
					"maxclass" : "number",
					"numinlets" : 1,
					"numoutlets" : 2,
					"outlettype" : [ "", "bang" ],
					"parameter_enable" : 0,
					"patching_rect" : [ 310.0, 735.0, 50.0, 22.0 ]
				}

			}
, 			{
				"box" : 				{
					"id" : "obj-20",
					"maxclass" : "newobj",
					"numinlets" : 2,
					"numoutlets" : 1,
					"outlettype" : [ "int" ],
					"patching_rect" : [ 384.0, 665.0, 29.5, 22.0 ],
					"text" : "+ 1"
				}

			}
, 			{
				"box" : 				{
					"id" : "obj-19",
					"maxclass" : "newobj",
					"numinlets" : 2,
					"numoutlets" : 1,
					"outlettype" : [ "int" ],
					"patching_rect" : [ 384.0, 608.0, 29.5, 22.0 ],
					"text" : "* 3"
				}

			}
, 			{
				"box" : 				{
					"id" : "obj-18",
					"maxclass" : "newobj",
					"numinlets" : 2,
					"numoutlets" : 1,
					"outlettype" : [ "int" ],
					"patching_rect" : [ 256.0, 608.0, 29.5, 22.0 ],
					"text" : "/ 2"
				}

			}
, 			{
				"box" : 				{
					"id" : "obj-17",
					"maxclass" : "newobj",
					"numinlets" : 2,
					"numoutlets" : 1,
					"outlettype" : [ "int" ],
					"patching_rect" : [ 256.0, 486.0, 29.5, 22.0 ],
					"text" : "+ 1"
				}

			}
, 			{
				"box" : 				{
					"id" : "obj-13",
					"maxclass" : "newobj",
					"numinlets" : 2,
					"numoutlets" : 2,
					"outlettype" : [ "", "" ],
					"patching_rect" : [ 256.0, 537.0, 157.5, 22.0 ],
					"text" : "gate 2"
				}

			}
, 			{
				"box" : 				{
					"id" : "obj-12",
					"maxclass" : "number",
					"numinlets" : 1,
					"numoutlets" : 2,
					"outlettype" : [ "", "bang" ],
					"parameter_enable" : 0,
					"patching_rect" : [ 256.0, 434.0, 50.0, 22.0 ]
				}

			}
, 			{
				"box" : 				{
					"id" : "obj-10",
					"maxclass" : "newobj",
					"numinlets" : 2,
					"numoutlets" : 1,
					"outlettype" : [ "int" ],
					"patching_rect" : [ 256.0, 363.0, 29.5, 22.0 ],
					"text" : "% 2"
				}

			}
, 			{
				"box" : 				{
					"id" : "obj-9",
					"maxclass" : "number",
					"numinlets" : 1,
					"numoutlets" : 2,
					"outlettype" : [ "", "bang" ],
					"parameter_enable" : 0,
					"patching_rect" : [ 256.0, 305.0, 50.0, 22.0 ]
				}

			}
, 			{
				"box" : 				{
					"id" : "obj-7",
					"maxclass" : "button",
					"numinlets" : 1,
					"numoutlets" : 1,
					"outlettype" : [ "bang" ],
					"parameter_enable" : 0,
					"patching_rect" : [ 256.0, 148.0, 24.0, 24.0 ]
				}

			}
, 			{
				"box" : 				{
					"id" : "obj-5",
					"maxclass" : "number",
					"numinlets" : 1,
					"numoutlets" : 2,
					"outlettype" : [ "", "bang" ],
					"parameter_enable" : 0,
					"patching_rect" : [ 351.0, 138.0, 50.0, 22.0 ]
				}

			}
, 			{
				"box" : 				{
					"id" : "obj-3",
					"maxclass" : "newobj",
					"numinlets" : 2,
					"numoutlets" : 1,
					"outlettype" : [ "int" ],
					"patching_rect" : [ 256.0, 235.0, 114.0, 22.0 ],
					"text" : "int"
				}

			}
, 			{
				"box" : 				{
					"angle" : 270.0,
					"grad1" : [ 0.545098039215686, 0.03921568627451, 0.03921568627451, 1.0 ],
					"grad2" : [ 0.172137149796092, 0.172137100044002, 0.172137113045018, 1.0 ],
					"id" : "obj-74",
					"maxclass" : "panel",
					"mode" : 1,
					"numinlets" : 1,
					"numoutlets" : 0,
					"patching_rect" : [ 1631.249937772750854, 1431.249945402145386, 128.0, 128.0 ],
					"presentation" : 1,
					"presentation_rect" : [ 236.14458703994751, 146.987957239151001, 1104.819317936897278, 592.771106243133545 ],
					"proportion" : 0.5
				}

			}
 ],
		"lines" : [ 			{
				"patchline" : 				{
					"destination" : [ "obj-117", 2 ],
					"source" : [ "obj-1", 0 ]
				}

			}
, 			{
				"patchline" : 				{
					"destination" : [ "obj-12", 0 ],
					"source" : [ "obj-10", 0 ]
				}

			}
, 			{
				"patchline" : 				{
					"destination" : [ "obj-119", 0 ],
					"source" : [ "obj-100", 0 ]
				}

			}
, 			{
				"patchline" : 				{
					"destination" : [ "obj-1", 0 ],
					"source" : [ "obj-101", 0 ]
				}

			}
, 			{
				"patchline" : 				{
					"destination" : [ "obj-16", 0 ],
					"source" : [ "obj-103", 0 ]
				}

			}
, 			{
				"patchline" : 				{
					"destination" : [ "obj-26", 0 ],
					"source" : [ "obj-106", 0 ]
				}

			}
, 			{
				"patchline" : 				{
					"destination" : [ "obj-35", 0 ],
					"source" : [ "obj-117", 0 ]
				}

			}
, 			{
				"patchline" : 				{
					"destination" : [ "obj-32", 0 ],
					"source" : [ "obj-118", 0 ]
				}

			}
, 			{
				"patchline" : 				{
					"destination" : [ "obj-1", 0 ],
					"source" : [ "obj-119", 0 ]
				}

			}
, 			{
				"patchline" : 				{
					"destination" : [ "obj-17", 0 ],
					"source" : [ "obj-12", 0 ]
				}

			}
, 			{
				"patchline" : 				{
					"destination" : [ "obj-40", 0 ],
					"source" : [ "obj-122", 0 ]
				}

			}
, 			{
				"patchline" : 				{
					"destination" : [ "obj-53", 0 ],
					"source" : [ "obj-124", 0 ]
				}

			}
, 			{
				"patchline" : 				{
					"destination" : [ "obj-56", 0 ],
					"source" : [ "obj-126", 0 ]
				}

			}
, 			{
				"patchline" : 				{
					"destination" : [ "obj-63", 0 ],
					"source" : [ "obj-128", 0 ]
				}

			}
, 			{
				"patchline" : 				{
					"destination" : [ "obj-18", 0 ],
					"source" : [ "obj-13", 0 ]
				}

			}
, 			{
				"patchline" : 				{
					"destination" : [ "obj-19", 0 ],
					"source" : [ "obj-13", 1 ]
				}

			}
, 			{
				"patchline" : 				{
					"destination" : [ "obj-64", 0 ],
					"source" : [ "obj-130", 0 ]
				}

			}
, 			{
				"patchline" : 				{
					"destination" : [ "obj-67", 0 ],
					"source" : [ "obj-132", 0 ]
				}

			}
, 			{
				"patchline" : 				{
					"destination" : [ "obj-70", 0 ],
					"source" : [ "obj-134", 0 ]
				}

			}
, 			{
				"patchline" : 				{
					"destination" : [ "obj-73", 0 ],
					"source" : [ "obj-136", 0 ]
				}

			}
, 			{
				"patchline" : 				{
					"destination" : [ "obj-76", 0 ],
					"source" : [ "obj-138", 0 ]
				}

			}
, 			{
				"patchline" : 				{
					"destination" : [ "obj-1", 0 ],
					"source" : [ "obj-14", 0 ]
				}

			}
, 			{
				"patchline" : 				{
					"destination" : [ "obj-79", 0 ],
					"source" : [ "obj-140", 0 ]
				}

			}
, 			{
				"patchline" : 				{
					"destination" : [ "obj-14", 0 ],
					"source" : [ "obj-15", 0 ]
				}

			}
, 			{
				"patchline" : 				{
					"destination" : [ "obj-1", 0 ],
					"source" : [ "obj-16", 0 ]
				}

			}
, 			{
				"patchline" : 				{
					"destination" : [ "obj-13", 0 ],
					"source" : [ "obj-17", 0 ]
				}

			}
, 			{
				"patchline" : 				{
					"destination" : [ "obj-8", 1 ],
					"source" : [ "obj-170", 0 ]
				}

			}
, 			{
				"patchline" : 				{
					"destination" : [ "obj-22", 0 ],
					"source" : [ "obj-18", 0 ]
				}

			}
, 			{
				"patchline" : 				{
					"destination" : [ "obj-20", 0 ],
					"source" : [ "obj-19", 0 ]
				}

			}
, 			{
				"patchline" : 				{
					"destination" : [ "obj-22", 0 ],
					"source" : [ "obj-20", 0 ]
				}

			}
, 			{
				"patchline" : 				{
					"destination" : [ "obj-29", 0 ],
					"order" : 2,
					"source" : [ "obj-22", 0 ]
				}

			}
, 			{
				"patchline" : 				{
					"destination" : [ "obj-3", 1 ],
					"midpoints" : [ 319.5, 767.0, 487.25, 767.0, 487.25, 225.0, 360.5, 225.0 ],
					"order" : 1,
					"source" : [ "obj-22", 0 ]
				}

			}
, 			{
				"patchline" : 				{
					"destination" : [ "obj-34", 0 ],
					"midpoints" : [ 319.5, 767.0, 466.0, 767.0, 466.0, 457.0, 596.5, 457.0 ],
					"order" : 0,
					"source" : [ "obj-22", 0 ]
				}

			}
, 			{
				"patchline" : 				{
					"destination" : [ "obj-13", 1 ],
					"source" : [ "obj-23", 0 ]
				}

			}
, 			{
				"patchline" : 				{
					"destination" : [ "obj-9", 0 ],
					"source" : [ "obj-23", 1 ]
				}

			}
, 			{
				"patchline" : 				{
					"destination" : [ "obj-1", 0 ],
					"source" : [ "obj-26", 0 ]
				}

			}
, 			{
				"patchline" : 				{
					"destination" : [ "obj-57", 0 ],
					"source" : [ "obj-27", 0 ]
				}

			}
, 			{
				"patchline" : 				{
					"destination" : [ "obj-52", 0 ],
					"order" : 1,
					"source" : [ "obj-28", 0 ]
				}

			}
, 			{
				"patchline" : 				{
					"destination" : [ "obj-8", 0 ],
					"order" : 0,
					"source" : [ "obj-28", 0 ]
				}

			}
, 			{
				"patchline" : 				{
					"destination" : [ "obj-31", 0 ],
					"source" : [ "obj-29", 0 ]
				}

			}
, 			{
				"patchline" : 				{
					"destination" : [ "obj-23", 0 ],
					"source" : [ "obj-3", 0 ]
				}

			}
, 			{
				"patchline" : 				{
					"destination" : [ "obj-28", 0 ],
					"midpoints" : [ 319.5, 880.0, 131.5, 880.0, 131.5, 122.0, 153.5, 122.0 ],
					"source" : [ "obj-31", 0 ]
				}

			}
, 			{
				"patchline" : 				{
					"destination" : [ "obj-1", 0 ],
					"source" : [ "obj-32", 0 ]
				}

			}
, 			{
				"patchline" : 				{
					"destination" : [ "obj-117", 1 ],
					"order" : 1,
					"source" : [ "obj-34", 0 ]
				}

			}
, 			{
				"patchline" : 				{
					"destination" : [ "obj-4", 0 ],
					"order" : 0,
					"source" : [ "obj-34", 0 ]
				}

			}
, 			{
				"patchline" : 				{
					"destination" : [ "obj-37", 0 ],
					"source" : [ "obj-35", 0 ]
				}

			}
, 			{
				"patchline" : 				{
					"destination" : [ "obj-38", 0 ],
					"source" : [ "obj-37", 0 ]
				}

			}
, 			{
				"patchline" : 				{
					"destination" : [ "obj-41", 0 ],
					"source" : [ "obj-38", 0 ]
				}

			}
, 			{
				"patchline" : 				{
					"destination" : [ "obj-42", 0 ],
					"source" : [ "obj-38", 1 ]
				}

			}
, 			{
				"patchline" : 				{
					"destination" : [ "obj-1", 0 ],
					"source" : [ "obj-4", 0 ]
				}

			}
, 			{
				"patchline" : 				{
					"destination" : [ "obj-1", 0 ],
					"source" : [ "obj-40", 0 ]
				}

			}
, 			{
				"patchline" : 				{
					"destination" : [ "obj-44", 0 ],
					"source" : [ "obj-43", 0 ]
				}

			}
, 			{
				"patchline" : 				{
					"destination" : [ "obj-45", 0 ],
					"source" : [ "obj-44", 0 ]
				}

			}
, 			{
				"patchline" : 				{
					"destination" : [ "obj-46", 0 ],
					"source" : [ "obj-45", 0 ]
				}

			}
, 			{
				"patchline" : 				{
					"destination" : [ "obj-48", 0 ],
					"source" : [ "obj-45", 1 ]
				}

			}
, 			{
				"patchline" : 				{
					"destination" : [ "obj-47", 0 ],
					"source" : [ "obj-46", 0 ]
				}

			}
, 			{
				"patchline" : 				{
					"destination" : [ "obj-28", 0 ],
					"source" : [ "obj-47", 0 ]
				}

			}
, 			{
				"patchline" : 				{
					"destination" : [ "obj-5", 0 ],
					"source" : [ "obj-47", 1 ]
				}

			}
, 			{
				"patchline" : 				{
					"destination" : [ "obj-49", 0 ],
					"source" : [ "obj-48", 0 ]
				}

			}
, 			{
				"patchline" : 				{
					"destination" : [ "obj-48", 1 ],
					"midpoints" : [ 179.5, 337.0, 235.75, 337.0, 235.75, 225.0, 205.5, 225.0 ],
					"source" : [ "obj-49", 0 ]
				}

			}
, 			{
				"patchline" : 				{
					"destination" : [ "obj-3", 1 ],
					"source" : [ "obj-5", 0 ]
				}

			}
, 			{
				"patchline" : 				{
					"destination" : [ "obj-101", 0 ],
					"source" : [ "obj-50", 0 ]
				}

			}
, 			{
				"patchline" : 				{
					"destination" : [ "obj-1", 0 ],
					"source" : [ "obj-53", 0 ]
				}

			}
, 			{
				"patchline" : 				{
					"destination" : [ "obj-1", 0 ],
					"source" : [ "obj-56", 0 ]
				}

			}
, 			{
				"patchline" : 				{
					"destination" : [ "obj-1", 0 ],
					"source" : [ "obj-57", 0 ]
				}

			}
, 			{
				"patchline" : 				{
					"destination" : [ "obj-1", 0 ],
					"source" : [ "obj-63", 0 ]
				}

			}
, 			{
				"patchline" : 				{
					"destination" : [ "obj-1", 0 ],
					"source" : [ "obj-64", 0 ]
				}

			}
, 			{
				"patchline" : 				{
					"destination" : [ "obj-1", 0 ],
					"source" : [ "obj-65", 0 ]
				}

			}
, 			{
				"patchline" : 				{
					"destination" : [ "obj-1", 0 ],
					"source" : [ "obj-67", 0 ]
				}

			}
, 			{
				"patchline" : 				{
					"destination" : [ "obj-3", 0 ],
					"source" : [ "obj-7", 0 ]
				}

			}
, 			{
				"patchline" : 				{
					"destination" : [ "obj-1", 0 ],
					"source" : [ "obj-70", 0 ]
				}

			}
, 			{
				"patchline" : 				{
					"destination" : [ "obj-65", 0 ],
					"source" : [ "obj-71", 0 ]
				}

			}
, 			{
				"patchline" : 				{
					"destination" : [ "obj-1", 0 ],
					"source" : [ "obj-73", 0 ]
				}

			}
, 			{
				"patchline" : 				{
					"destination" : [ "obj-1", 0 ],
					"source" : [ "obj-76", 0 ]
				}

			}
, 			{
				"patchline" : 				{
					"destination" : [ "obj-1", 0 ],
					"source" : [ "obj-79", 0 ]
				}

			}
, 			{
				"patchline" : 				{
					"destination" : [ "obj-7", 0 ],
					"source" : [ "obj-8", 0 ]
				}

			}
, 			{
				"patchline" : 				{
					"destination" : [ "obj-10", 0 ],
					"source" : [ "obj-9", 0 ]
				}

			}
 ],
		"originid" : "pat-6",
		"dependency_cache" : [  ],
		"autosave" : 0,
		"styles" : [ 			{
				"name" : "jpatcher001",
				"parentstyle" : "default",
				"multi" : 0
			}
 ],
		"selectioncolor" : [ 0.545098039215686, 0.03921568627451, 0.03921568627451, 1.0 ]
	}

}
